<svg width="40" height="40" viewBox="0 0 40 40" fill="none" xmlns="http://www.w3.org/2000/svg">
<path d="M33.3334 6.66667H10C8.16169 6.66667 6.66669 8.16167 6.66669 10V18.3333H10V13.3333L20.6667 21.3333C20.9553 21.5494 21.3061 21.6663 21.6667 21.6663C22.0272 21.6663 22.3781 21.5494 22.6667 21.3333L33.3334 13.3333V28.3333H20V31.6667H33.3334C35.1717 31.6667 36.6667 30.1717 36.6667 28.3333V10C36.6667 8.16167 35.1717 6.66667 33.3334 6.66667ZM21.6667 17.9167L11.11 10H32.2234L21.6667 17.9167Z" fill="#CBD5E0"/>
<path d="M3.33331 20H15V23.3333H3.33331V20ZM6.66665 25H16.6666V28.3333H6.66665V25ZM11.6666 30H18.3333V33.3333H11.6666V30Z" fill="#CBD5E0"/>
</svg>
